<svg width="369" height="100" viewBox="0 0 369 100" fill="none" xmlns="http://www.w3.org/2000/svg">
<path d="M102.873 12.048H119.833C124.143 12.048 127.294 13.2065 129.333 15.1991C131.325 16.9136 132.206 19.2306 132.206 21.5012C132.206 22.3816 132.206 23.4938 131.928 24.3742C131.372 25.8108 130.491 27.2473 129.333 28.4057C128.777 28.9618 128.174 29.2862 127.618 29.5642C129.611 30.1203 131.372 31.2788 132.808 32.7153C133.967 34.1518 134.523 35.8664 134.523 38.4613C134.523 39.8979 134.245 41.6124 133.642 42.7709C133.086 43.9294 131.928 45.0879 130.769 45.922C129.333 46.8024 127.896 47.3585 126.46 47.9145C124.745 48.4706 122.706 48.4706 120.714 48.4706H103.151V11.9553H102.873V12.048ZM118.397 26.9692C119.833 26.9692 121.27 26.6912 122.706 26.0888C123.865 25.5327 124.421 24.3742 124.421 23.2158C124.421 22.0573 123.865 20.8988 122.984 20.3427C121.826 19.4623 120.389 19.1842 118.953 19.4623H110.89V27.2009H118.35V26.9692H118.397ZM120.389 41.6588C121.826 41.6588 123.262 41.3807 124.699 40.7783C125.857 40.2222 126.413 39.0638 126.135 37.6272C126.135 36.4688 125.579 35.3103 124.699 34.7542C123.818 34.1981 122.104 33.5957 120.111 33.5957H110.612V41.6588H120.389Z" fill="white"/>
<path d="M144.531 12.0483H152.594V48.8417H144.531V12.0483Z" fill="white"/>
<path d="M164.967 12.0483H172.427L189.666 34.7545V12.0483H197.682V48.8417H190.824L172.705 25.533V48.8417H164.967V12.0483Z" fill="white"/>
<path d="M222.149 11.77H229.61L245.412 48.8414H237.071L233.641 40.5003H218.118L214.689 48.8414H206.348L222.149 11.77ZM230.768 33.5958L225.903 21.5476L221.037 33.5958H230.768Z" fill="white"/>
<path d="M254.031 12.0483H261.492L278.73 34.7545V12.0483H286.793V48.8417H279.889L262.048 25.533V48.8417H254.031V12.0483Z" fill="white"/>
<path d="M316.08 49.3974C313.485 49.3974 310.89 48.8413 308.619 47.9609C304.032 45.9683 300.556 42.4929 298.563 37.9053C297.683 35.5883 297.127 33.0397 297.127 30.4447C297.127 25.5791 299.12 20.6671 302.595 16.96C304.31 15.2454 306.348 13.8089 308.619 12.9285C311.214 11.77 313.809 11.4919 316.358 11.4919C317.794 11.4919 319.509 11.4919 320.945 11.77C322.382 12.048 323.54 12.3261 324.699 12.9285C325.857 13.4845 327.016 14.0869 327.85 14.643C328.73 15.1991 329.842 16.0795 330.723 16.96L325.857 22.9841C324.421 21.8256 322.984 20.6671 321.548 19.833C320.111 18.9989 318.397 18.6745 316.682 18.6745C315.246 18.6745 313.809 18.9526 312.373 19.555C310.936 20.111 309.778 20.9915 308.943 22.15C308.109 23.3084 307.229 24.4669 306.626 25.9034C306.07 27.34 305.746 28.7765 305.746 30.213C305.746 31.6495 306.024 33.3641 306.626 34.8006C307.229 36.2371 307.785 37.3956 308.943 38.554C310.936 40.871 313.809 41.9831 316.682 41.9831C318.397 41.9831 320.436 41.7051 322.15 40.8247C323.587 39.9442 325.301 38.8321 326.46 37.6736L331.603 42.8172C330.723 43.6977 329.611 44.8098 328.73 45.6903C327.572 46.5707 326.413 47.1268 325.301 47.6829C324.143 48.2389 322.706 48.8413 321.27 49.1194C319.231 49.3974 317.516 49.3974 316.08 49.3974Z" fill="white"/>
<path d="M340.824 12.0483H368.396V19.2309H348.563V26.6915H366.079V33.8741H348.563V41.6591H368.674V48.8417H340.824V12.0483Z" fill="white"/>
<path d="M113.206 85.0324C111.213 85.0324 109.174 84.7544 107.46 83.874C105.745 83.3179 104.03 82.1594 102.27 80.7229L105.143 77.5718C106.301 78.7303 107.46 79.2864 108.896 80.1668C110.333 80.7229 111.769 81.0473 113.206 81.0473C114.364 81.0473 115.523 80.7692 116.635 80.1668C117.515 79.6108 117.793 78.7303 117.793 77.8499C117.793 77.5718 117.793 76.9694 117.515 76.6914C117.237 76.4133 116.959 75.8109 116.635 75.5329C116.079 75.2549 115.476 74.9768 114.92 74.6525C114.04 74.3744 112.928 74.0964 112.047 73.772C110.889 73.494 109.452 73.2159 108.294 72.6135C107.413 72.3355 106.301 71.7331 105.699 71.177C105.143 70.621 104.54 70.0185 103.984 69.1844C103.428 68.0259 103.428 66.8675 103.428 66.0334C103.428 64.8749 103.706 64.0408 103.984 62.8823C104.262 62.0018 105.143 61.1677 105.699 60.5653C106.579 60.0093 107.413 59.4069 108.572 59.1288C109.73 58.8508 110.889 58.5728 112.001 58.5728C113.715 58.5728 115.43 58.8508 117.191 59.4532C118.627 60.0093 120.064 60.8897 121.5 61.7702L119.183 65.1993C118.025 64.3188 116.866 63.7627 115.754 63.2067C114.596 62.6506 113.437 62.6506 112.325 62.6506C111.167 62.6506 110.008 62.9286 109.174 63.5311C108.618 64.0871 108.016 64.9676 108.016 65.848C108.016 66.4041 108.016 66.7284 108.294 67.2845C108.572 67.5626 108.85 68.165 109.174 68.443C109.73 68.721 110.333 68.9991 111.167 69.3235C112.047 69.6015 112.881 69.8795 114.318 70.2039C115.476 70.4819 116.635 70.76 118.071 71.3624C118.952 71.6404 119.786 72.2428 120.666 72.7989C121.222 73.355 121.825 74.2354 122.103 74.7915C122.381 75.6719 122.659 76.506 122.659 77.6645C122.659 78.823 122.381 79.9815 122.103 80.8156C121.547 81.696 120.944 82.5301 120.11 83.4106C119.23 83.9666 118.396 84.569 117.237 84.8471C115.801 84.7544 114.364 85.0324 113.206 85.0324Z" fill="white"/>
<path d="M127.572 58.897H132.484L140.223 70.9452L148.286 58.897H153.151V84.7542H148.564V66.0795L140.501 78.1277H140.223L132.206 66.0795V84.7542H127.572V58.897Z" fill="white"/>
<path d="M168.674 58.6189H172.983L184.197 84.4762H179.332L176.737 78.174H164.688L162.093 84.4762H157.506L168.674 58.6189ZM175.3 74.4206L170.713 64.0869L166.403 74.4206H175.3Z" fill="white"/>
<path d="M188.786 58.897H200.278C201.714 58.897 203.151 59.175 204.588 59.453C205.746 59.7311 206.904 60.6115 207.739 61.4456C208.295 62.0017 208.897 62.8821 209.453 64.0406C209.731 64.9211 210.009 66.0332 210.009 67.1917C210.009 68.0721 209.731 69.1843 209.453 70.0647C209.175 70.9452 208.573 71.5012 208.295 72.3817C207.739 72.9377 207.136 73.5402 206.302 74.0962C205.422 74.6523 204.588 74.9767 203.707 75.2547L210.612 85.0323H205.144L198.841 76.1351H193.095V85.0323H188.508L188.786 58.897ZM200 71.5476C201.436 71.5476 202.873 71.2695 203.753 70.3891C204.634 69.5086 205.19 68.3965 205.19 67.238C205.19 66.0795 204.634 64.9211 203.753 64.087C202.595 63.2065 201.158 62.9285 199.722 62.9285H193.095V71.5476H200Z" fill="white"/>
<path d="M221.825 62.9285H213.484V58.897H234.476V62.9285H226.135V84.7542H221.547L221.825 62.9285Z" fill="white"/>
<path d="M262.373 85.0326C260.659 85.0326 258.944 84.7546 257.183 83.8741C254.032 82.4376 251.437 80.1206 250.279 76.9696C249.723 75.255 249.12 73.5405 249.398 71.7796C249.398 70.065 249.676 68.3505 250.279 66.5896C251.437 63.4385 254.032 60.8435 257.183 59.407C258.898 58.8509 260.612 58.2485 262.651 58.2485C263.81 58.2485 264.968 58.2485 265.802 58.5266C266.683 58.8046 267.517 59.0826 268.397 59.407C269.278 59.6851 269.834 60.2875 270.714 60.5655C271.27 61.1216 272.151 61.724 272.707 62.2801L269.834 65.7091C268.953 64.8287 267.841 63.9946 266.683 63.3922C265.524 62.8361 264.088 62.5117 262.651 62.5117C261.493 62.5117 260.334 62.7898 259.222 63.0678C258.064 63.6239 257.229 64.2263 256.349 65.0604C255.469 65.9408 254.913 66.775 254.635 67.9334C254.356 69.0919 254.078 70.2504 254.078 71.3625C254.078 72.521 254.356 73.6795 254.635 74.7916C254.913 75.9038 255.515 76.7842 256.349 77.6647C257.229 78.5451 258.064 79.1012 259.222 79.6573C260.381 80.2133 261.539 80.5377 262.651 80.2133C264.088 80.2133 265.524 79.9353 266.683 79.3329C267.841 78.7768 269 77.8964 270.112 76.7379L272.985 79.6109C272.429 80.167 271.548 81.0474 270.992 81.6035C270.112 82.1596 269.556 82.762 268.675 83.04C267.795 83.318 266.961 83.9205 265.802 83.9205C264.644 85.0326 263.485 85.0326 262.373 85.0326Z" fill="white"/>
<path d="M277.572 58.897H281.882V69.5086H294.254V58.897H298.842V84.7542H294.254V73.8182H281.882V84.7542H277.572V58.897Z" fill="white"/>
<path d="M314.642 58.6189H318.952L330.166 84.4762H325.3L322.705 78.174H310.657L308.062 84.4762H303.475L314.642 58.6189ZM320.991 74.4206L316.681 64.0869L312.372 74.4206H320.991Z" fill="white"/>
<path d="M334.754 58.897H339.388V84.7542H334.754V58.897Z" fill="white"/>
<path d="M346.246 58.897H350.278L364.087 76.6912V58.897H368.674V84.7542H364.921L350.88 66.3576V84.7542H346.246V58.897Z" fill="white"/>
<path d="M52.3169 83.0398V94.2539L42.5394 100L33.0398 94.2539V83.0398L42.5394 88.7859L52.3169 83.0398ZM0 44.2539L9.49954 50V69.2308L25.8573 79.0083V90.2224L0 74.9768V44.2539ZM85.0788 44.2539V75.0232L58.9435 90.2688V79.0547L75.3012 69.2771V50.0463L85.0788 44.2539ZM58.8971 29.0083L68.6747 34.7544V45.9685L52.3169 55.7461V75.2549L42.8174 81.0009L33.3642 75.2549V55.6997L16.4041 45.9221V34.7081L26.1816 28.962L42.5394 38.7396L58.8971 29.0083ZM16.4041 53.9852L25.9036 59.7312V70.9453L16.4041 65.1992V53.9852ZM68.6747 53.9852V65.1992L59.1752 70.9453V59.7312L68.6747 53.9852ZM9.49954 19.2308L19.2771 24.9768L9.49954 30.7229V41.937L0 36.1909V24.9768L9.49954 19.2308ZM75.5792 19.2308L85.3568 24.9768V36.1909L75.5792 41.937V30.7229L66.0797 24.9768L75.5792 19.2308ZM42.5394 19.2308L52.3169 24.9768L42.5394 30.7229L33.0398 24.9768L42.5394 19.2308ZM42.5394 0L68.6747 15.2456L59.1752 20.9917L42.8174 11.2141L26.1353 20.9917L16.6358 15.2456L42.5394 0Z" fill="#F3BA2F"/>
</svg>
