<?xml version="1.0" encoding="UTF-8"?>
<svg xmlns="http://www.w3.org/2000/svg" version="1.1" width="225px" height="225px" style="shape-rendering:geometricPrecision; text-rendering:geometricPrecision; image-rendering:optimizeQuality; fill-rule:evenodd; clip-rule:evenodd" xmlns:xlink="http://www.w3.org/1999/xlink">
<g><path style="opacity:1" fill="#8bc53f" d="M 104.5,-0.5 C 109.167,-0.5 113.833,-0.5 118.5,-0.5C 170.675,5.35915 204.842,33.3591 221,83.5C 222.132,89.9827 223.299,96.316 224.5,102.5C 224.5,107.833 224.5,113.167 224.5,118.5C 220.085,163.085 197.752,195.252 157.5,215C 144.785,219.93 131.785,223.096 118.5,224.5C 111.833,224.5 105.167,224.5 98.5,224.5C 53.9237,216.46 23.0903,191.46 6,149.5C 2.74189,139.249 0.575227,128.916 -0.5,118.5C -0.5,114.167 -0.5,109.833 -0.5,105.5C 0.334461,98.2628 1.50113,90.9295 3,83.5C 18.9761,33.673 52.8094,5.67297 104.5,-0.5 Z"/></g>
<g><path style="opacity:1" fill="#f8e887" d="M 140.5,65.5 C 139.476,61.6381 137.143,58.8048 133.5,57C 127.625,54.55 121.625,54.05 115.5,55.5C 90.603,51.187 68.7697,57.5203 50,74.5C 43.2668,82.9726 39.6001,92.6393 39,103.5C 38.7049,123.602 35.7049,143.269 30,162.5C 29.0438,165.377 27.7105,168.044 26,170.5C 11.0799,148.049 5.41326,123.382 9,96.5C 16.5088,56.6645 39.0088,29.1645 76.5,14C 116.949,1.51324 152.949,9.1799 184.5,37C 220.214,76.2133 225.714,119.38 201,166.5C 184.282,192.289 160.782,208.289 130.5,214.5C 129.047,200.638 131.88,187.638 139,175.5C 143.944,167.557 149.277,159.891 155,152.5C 165.998,140.502 177.331,128.836 189,117.5C 199.077,104.272 197.577,92.7722 184.5,83C 169.773,77.1597 155.107,71.3264 140.5,65.5 Z"/></g>
<g><path style="opacity:1" fill="#259747" d="M 140.5,65.5 C 133.028,62.3788 125.361,59.7121 117.5,57.5C 116.287,57.2528 115.62,56.5862 115.5,55.5C 121.625,54.05 127.625,54.55 133.5,57C 137.143,58.8048 139.476,61.6381 140.5,65.5 Z"/></g>
<g><path style="opacity:1" fill="#fafbf8" d="M 91.5,66.5 C 109.469,65.3027 117.969,73.636 117,91.5C 111.972,104.187 102.805,108.687 89.5,105C 78.3436,98.8411 74.8436,89.6744 79,77.5C 82.1239,72.5362 86.2906,68.8696 91.5,66.5 Z"/></g>
<g><path style="opacity:1" fill="#58595b" d="M 93.5,72.5 C 108.729,72.8814 113.896,80.2147 109,94.5C 103.053,100.848 96.2193,102.014 88.5,98C 82.2604,90.9368 81.9271,83.6035 87.5,76C 89.4319,74.5415 91.4319,73.3748 93.5,72.5 Z"/></g>
<g><path style="opacity:1" fill="#fafcf8" d="M 166.5,102.5 C 173.004,102.138 174.671,104.638 171.5,110C 167.558,111.418 165.225,110.084 164.5,106C 164.978,104.697 165.645,103.531 166.5,102.5 Z"/></g>
<g><path style="opacity:1" fill="#6a7f53" d="M 182.5,119.5 C 184.975,119.747 184.975,120.413 182.5,121.5C 181.537,121.03 181.537,120.363 182.5,119.5 Z"/></g>
<g><path style="opacity:1" fill="#595a5a" d="M 175.5,123.5 C 177.379,123.393 177.712,123.893 176.5,125C 161.159,133.253 144.825,136.92 127.5,136C 122.275,134.721 117.609,132.388 113.5,129C 117.652,130.492 121.986,131.825 126.5,133C 143.768,134.125 160.102,130.958 175.5,123.5 Z"/></g>
</svg>
