<svg width="145" height="145" viewBox="0 0 145 145" fill="none" xmlns="http://www.w3.org/2000/svg">
<path d="M61.1148 76.336C68.0951 80.3648 71.5851 82.3792 75.4183 82.3825C79.2512 82.3858 82.7448 80.3775 89.7322 76.361L134.273 50.7578C136.283 49.602 137.523 47.4596 137.523 45.1403C137.523 42.8209 136.283 40.6785 134.273 39.5227L89.7162 13.9102C82.7363 9.89793 79.2463 7.89182 75.4172 7.89331C71.5878 7.89481 68.0996 9.90364 61.1228 13.9213L22.819 35.9792C22.535 36.1427 22.3931 36.2246 22.2608 36.302C9.17648 43.9615 1.09258 57.9453 0.984491 73.1063C0.983398 73.2596 0.983398 73.4233 0.983398 73.751C0.983398 74.078 0.983398 74.2418 0.984489 74.3948C1.09234 89.5388 9.15821 103.509 22.2192 111.175C22.3512 111.252 22.493 111.334 22.7763 111.498L46.7698 125.351C60.7507 133.423 67.7411 137.459 75.4178 137.462C83.0943 137.464 90.0876 133.433 104.074 125.37L129.402 110.769C136.405 106.732 139.907 104.714 141.83 101.386C143.753 98.0579 143.753 94.0162 143.753 85.9325V70.3165C143.753 68.0741 142.538 66.0075 140.579 64.9163C138.683 63.8604 136.372 63.876 134.491 64.9575L82.5547 94.8119C79.0703 96.8149 77.3278 97.8165 75.416 97.8172C73.504 97.8176 71.7611 96.8171 68.2753 94.8164L33.1238 74.6386C31.363 73.6279 30.4825 73.1224 29.7754 73.0311C28.1632 72.823 26.613 73.7262 25.9989 75.2313C25.7297 75.8914 25.735 76.9066 25.7459 78.9369C25.754 80.4315 25.758 81.1788 25.8976 81.8663C26.2106 83.4058 27.0204 84.7995 28.2029 85.8337C28.7309 86.2955 29.3781 86.6692 30.6728 87.4162L68.2555 109.108C71.7504 111.125 73.4978 112.133 75.4165 112.134C77.3354 112.134 79.0834 111.127 82.5793 109.112L128.645 82.5576C129.839 81.8692 130.436 81.525 130.884 81.7838C131.331 82.0425 131.331 82.7316 131.331 84.11V91.1929C131.331 93.214 131.331 94.2243 130.85 95.0564C130.37 95.8883 129.494 96.3929 127.743 97.4023L89.7485 119.304C82.7537 123.336 79.2563 125.352 75.4174 125.35C71.5782 125.348 68.0826 123.329 61.0916 119.291L25.5441 98.7566C25.4312 98.6912 25.3747 98.6586 25.3221 98.6279C17.8687 94.2725 13.2697 86.3046 13.2265 77.672C13.2262 77.6111 13.2262 77.546 13.2262 77.4155V70.9137C13.2262 66.1481 15.7643 61.7432 19.8873 59.3534C23.5306 57.2417 28.0245 57.2375 31.6715 59.3425L61.1148 76.336Z" fill="#F2F7F7"/>
</svg>
