<svg width="400" height="400" viewBox="0 0 400 400" fill="none" xmlns="http://www.w3.org/2000/svg">
<path fill-rule="evenodd" clip-rule="evenodd" d="M75.5594 335.388C73.4492 331.23 73.4492 325.783 73.4492 314.895V53.1041C73.4492 42.2164 73.4492 36.7759 75.5594 32.6179C77.4201 28.9594 80.3798 25.9827 84.0271 24.1197C88.1733 22.0002 93.6005 22.0002 104.455 22.0002H205.865C232.893 22.0002 246.41 22.0002 257.501 24.9837C287.589 33.0702 311.098 56.6478 319.161 86.8405C322.128 97.9645 322.128 111.525 322.128 138.64C322.128 156.291 314.159 162.764 307.363 168.272C302.313 172.37 297.911 175.94 297.911 183.197C297.911 190.345 303.042 193.915 308.988 198.06C317.199 203.777 326.975 210.581 326.975 229.366C326.975 256.434 326.975 269.974 324.015 281.078C315.959 311.291 292.443 334.889 262.334 342.975C251.264 345.952 237.774 345.959 210.787 345.966L104.462 345.999C93.6072 346.006 88.1801 346.006 84.0339 343.887C80.3865 342.024 77.4201 339.047 75.5594 335.388ZM217.994 128.245C224.075 118.66 229.347 110.364 229.347 99.76C229.347 78.2883 211.96 60.8801 190.514 60.8801C169.062 60.8801 151.674 79.105 151.674 99.76C151.674 110.364 157.088 118.66 163.338 128.245C171.893 141.347 182.013 156.865 182.013 184.006C182.013 211.141 171.893 226.66 163.338 239.768C157.088 249.346 151.674 257.642 151.674 268.246C151.674 289.718 169.062 307.126 190.514 307.126C211.96 307.126 229.347 289.718 229.347 268.246C229.347 257.642 224.075 249.346 217.994 239.768C209.668 226.66 199.818 211.141 199.818 184.006C199.818 156.865 209.668 141.347 217.994 128.245Z" fill="#FFD634"/>
</svg>
