<svg width="458" height="100" viewBox="0 0 458 100" fill="none" xmlns="http://www.w3.org/2000/svg">
<path fill-rule="evenodd" clip-rule="evenodd" d="M9.56963 99.0019C6.21953 99.0019 4.54448 99.0019 3.26479 98.3498C2.14115 97.7727 1.2256 96.856 0.651292 95.7269C0 94.4435 0 92.7623 0 89.4019V1H15.3459C18.696 1 20.3711 1 21.6508 1.65417C22.7744 2.22916 23.69 3.14791 24.2643 4.27708C24.9156 5.56041 24.9156 7.23957 24.9156 10.6V71.2019C24.9156 72.8832 24.9156 73.7228 25.2423 74.3644C25.5273 74.929 25.9851 75.3873 26.549 75.6748C27.1878 76.0019 28.0264 76.0019 29.6994 76.0019H65.4539C68.804 76.0019 70.479 76.0019 71.7587 76.6561C72.8823 77.2311 73.7979 78.1498 74.3722 79.279C75.0235 80.5623 75.0235 82.2415 75.0235 85.6019V99.0019H9.56963Z" fill="white"/>
<path fill-rule="evenodd" clip-rule="evenodd" d="M273.119 10.6C273.119 7.23957 273.119 5.56041 273.77 4.27708C274.343 3.14791 275.258 2.22916 276.384 1.65417C277.664 1 279.339 1 282.687 1H291.495C293.515 1 294.524 1 295.43 1.29583C296.229 1.55625 296.963 1.98541 297.587 2.55208C298.293 3.19166 298.794 4.07083 299.799 5.82916L330.435 59.502V10.6C330.435 7.23957 330.435 5.56041 331.086 4.27708C331.661 3.14791 332.574 2.22916 333.7 1.65417C334.979 1 336.654 1 340.005 1H354.358V89.3873C354.358 92.7456 354.358 94.4227 353.707 95.706C353.134 96.8352 352.221 97.7519 351.095 98.329C349.818 98.9831 348.145 98.9852 344.799 98.9873L335.989 98.9977C333.966 98.9998 332.955 98.9998 332.05 98.7039C331.249 98.4435 330.512 98.0165 329.888 97.4498C329.182 96.8081 328.679 95.929 327.674 94.1685L297.042 40.502V89.4019C297.042 92.7623 297.042 94.4435 296.389 95.7269C295.817 96.856 294.901 97.7727 293.775 98.3498C292.496 99.0019 290.823 99.0019 287.473 99.0019H273.119V10.6Z" fill="white"/>
<path fill-rule="evenodd" clip-rule="evenodd" d="M380.176 1H365.822V89.3769C365.822 92.7373 365.822 94.4185 366.474 95.7019C367.048 96.831 367.963 97.7477 369.087 98.3248C370.367 98.9769 372.042 98.9769 375.392 98.9769H389.745V59.002H393.661C395.334 59.002 396.173 59.002 396.947 59.2145C397.632 59.402 398.279 59.7103 398.855 60.127C399.508 60.5957 400.035 61.2478 401.09 62.5519L427.712 95.454C428.767 96.756 429.295 97.4081 429.946 97.879C430.523 98.2935 431.17 98.6019 431.857 98.7914C432.631 99.0019 433.467 99.0019 435.142 99.0019H457.777L422.568 55.5624C420.818 53.402 419.942 52.3207 419.607 51.1207C419.311 50.0624 419.311 48.9416 419.607 47.8832C419.944 46.6832 420.82 45.6041 422.57 43.4457L422.572 43.4437L457.014 1H434.622C432.955 1 432.123 1 431.351 1.21042C430.669 1.39792 430.023 1.70417 429.447 2.11666C428.796 2.58125 428.269 3.22916 427.214 4.52499L401.181 36.477C400.126 37.7728 399.598 38.4187 398.949 38.8853C398.372 39.2978 397.727 39.6041 397.045 39.7916C396.273 40.002 395.438 40.002 393.772 40.002H389.745V10.6C389.745 7.23957 389.745 5.56041 389.094 4.27708C388.52 3.14791 387.606 2.22916 386.481 1.65417C385.201 1 383.526 1 380.176 1Z" fill="white"/>
<path fill-rule="evenodd" clip-rule="evenodd" d="M86.372 96.7248C85.7207 95.4415 85.7207 93.7602 85.7207 90.3998V9.59998C85.7207 6.23957 85.7207 4.56041 86.372 3.27708C86.9463 2.14791 87.8598 1.22916 88.9855 0.654165C90.2652 0 91.9402 0 95.2903 0H126.59C134.932 0 139.104 0 142.527 0.920831C151.813 3.41666 159.069 10.6937 161.558 20.0125C162.473 23.4458 162.473 27.6312 162.473 35.9999C162.473 41.4478 160.014 43.4457 157.916 45.1457C156.358 46.4103 154.999 47.5124 154.999 49.752C154.999 51.9582 156.583 53.0603 158.418 54.3395C160.952 56.104 163.969 58.204 163.969 64.002C163.969 72.3561 163.969 76.5353 163.056 79.9623C160.569 89.2873 153.312 96.5706 144.019 99.0665C140.602 99.9852 136.438 99.9873 128.109 99.9894L95.2924 99.9998C91.9423 100.002 90.2673 100.002 88.9876 99.3477C87.8619 98.7727 86.9463 97.854 86.372 96.7248ZM130.333 32.7916C132.21 29.8333 133.837 27.2729 133.837 24C133.837 17.3729 128.471 12 121.852 12C115.231 12 109.864 17.625 109.864 24C109.864 27.2729 111.535 29.8333 113.464 32.7916C116.105 36.8353 119.228 41.6249 119.228 50.002C119.228 58.377 116.105 63.1665 113.464 67.2124C111.535 70.1686 109.864 72.729 109.864 76.0019C109.864 82.629 115.231 88.0019 121.852 88.0019C128.471 88.0019 133.837 82.629 133.837 76.0019C133.837 72.729 132.21 70.1686 130.333 67.2124C127.763 63.1665 124.723 58.377 124.723 50.002C124.723 41.6249 127.763 36.8353 130.333 32.7916Z" fill="#FFD634"/>
<path fill-rule="evenodd" clip-rule="evenodd" d="M200.513 79.5019L196.432 92.3227C195.669 94.7227 195.288 95.9227 194.56 96.8102C193.919 97.5956 193.088 98.204 192.148 98.579C191.085 99.0019 189.828 99.0019 187.316 99.0019H169.271L198.236 7.20415C198.996 4.79582 199.375 3.59166 200.103 2.7C200.744 1.9125 201.576 1.30208 202.517 0.927082C203.584 0.5 204.841 0.5 207.359 0.5H227.234C229.752 0.5 231.011 0.5 232.076 0.927082C233.019 1.30208 233.849 1.9125 234.49 2.7C235.218 3.59166 235.597 4.79374 236.357 7.20207L265.338 99.0019H247.283C244.771 99.0019 243.517 99.0019 242.451 98.579C241.513 98.204 240.683 97.5956 240.04 96.8102C239.314 95.9227 238.931 94.7227 238.167 92.3227L234.087 79.5019H200.513ZM205.602 63.502H228.995L217.297 26.7499L205.602 63.502Z" fill="white"/>
</svg>
