<svg width="159" height="115" viewBox="0 0 159 115" fill="none" xmlns="http://www.w3.org/2000/svg">
<path d="M74 31C74 34.5457 74.6984 38.0567 76.0553 41.3325C77.4121 44.6082 79.4009 47.5847 81.9081 50.0919C84.4153 52.5991 87.3918 54.5879 90.6675 55.9447C93.9433 57.3016 97.4543 58 101 58C104.546 58 108.057 57.3016 111.332 55.9447C114.608 54.5879 117.585 52.5991 120.092 50.0919C122.599 47.5847 124.588 44.6082 125.945 41.3325C127.302 38.0567 128 34.5457 128 31C128 27.4543 127.302 23.9433 125.945 20.6675C124.588 17.3918 122.599 14.4153 120.092 11.9081C117.585 9.40094 114.608 7.41213 111.332 6.05525C108.057 4.69838 104.546 4 101 4C97.4543 4 93.9433 4.69838 90.6675 6.05525C87.3918 7.41213 84.4153 9.40094 81.9081 11.9081C79.4009 14.4153 77.4121 17.3918 76.0553 20.6675C74.6984 23.9433 74 27.4543 74 31Z" stroke="white" stroke-width="8" stroke-linecap="round" stroke-linejoin="round"/>
<path d="M109.4 22C108.857 21.0573 108.067 20.2801 107.116 19.7517C106.165 19.2232 105.088 18.9634 104 19H98C96.4087 19 94.8826 19.6321 93.7574 20.7574C92.6321 21.8826 92 23.4087 92 25C92 26.5913 92.6321 28.1174 93.7574 29.2426C94.8826 30.3679 96.4087 31 98 31H104C105.591 31 107.117 31.6321 108.243 32.7574C109.368 33.8826 110 35.4087 110 37C110 38.5913 109.368 40.1174 108.243 41.2426C107.117 42.3679 105.591 43 104 43H98C96.9125 43.0366 95.8355 42.7768 94.8843 42.2483C93.933 41.7199 93.1435 40.9427 92.6 40M101 16V46" stroke="white" stroke-width="4" stroke-linecap="round" stroke-linejoin="round"/>
<path d="M21.946 50H2.20881C0.988916 50 0 50.9889 0 52.2088V104.662C0 105.951 1.04489 106.996 2.33383 106.996H23.3541C24.8062 106.996 25.9833 105.819 25.9833 104.366C25.9833 103.693 26.6051 103.192 27.2629 103.335L80.2699 114.873C83.6106 115.429 88.6217 114.024 90.7097 113.251L153.812 81.9732C159.38 78.6368 159.38 74.0957 158.684 72.2422C157.163 68.1413 154.578 66.3733 151.742 65.7627C144.269 64.154 136.824 68.4097 129.856 71.5527L122.527 74.8587C118.19 76.8147 113.64 78.2567 108.969 79.1554L90.7097 82.6682L77.0972 85.0774C74.0156 85.6228 70.8428 85.2935 67.9389 84.1268L53.6147 78.3717C52.8357 78.0587 52.463 77.1691 52.7863 76.3943C53.1036 75.6338 53.9732 75.2695 54.7378 75.5768L69.4445 81.4876C71.3492 82.2531 73.4537 82.3664 75.4296 81.8098L85.1627 79.0682C92.8744 76.8959 96.2525 67.3938 88.4994 65.3741C88.1088 65.2724 87.9541 65.2915 87.5504 65.2915H83.0597C76.0328 65.2915 69.0972 63.699 62.7741 60.6335L52.502 55.6536C49.8596 54.3726 46.9611 53.707 44.0245 53.707H25.653C25.0667 53.707 24.5914 53.2317 24.5914 52.6454C24.5914 51.1844 23.407 50 21.946 50Z" fill="white"/>
</svg>
