<svg width="642" height="100" viewBox="0 0 642 100" fill="none" xmlns="http://www.w3.org/2000/svg">
<path d="M122.124 77.6814C120.63 77.6814 119.564 77.3676 118.949 76.7526C118.384 76.1376 118.096 75.146 118.096 73.803V28.9432C118.096 27.6002 118.409 26.6211 119.024 25.9936C119.639 25.3158 120.681 24.9894 122.124 24.9894H141.096C148.324 24.9894 153.645 26.5082 157.058 29.5582C160.471 32.6083 162.165 37.152 162.165 43.1894C162.165 49.1765 160.458 53.7077 157.058 56.7452C153.695 59.7451 148.387 61.2387 141.096 61.2387H133.743V73.7904C133.743 75.1335 133.43 76.1125 132.815 76.74C132.2 77.3551 131.133 77.6689 129.64 77.6689C129.64 77.6814 122.124 77.6814 122.124 77.6814ZM139.867 50.0175C141.987 50.0175 143.606 49.4527 144.748 48.3105C145.94 47.1683 146.53 45.4738 146.53 43.2019C146.53 40.8799 145.94 39.1477 144.748 38.0055C143.606 36.8633 141.987 36.2985 139.867 36.2985H133.743V50.0175H139.867ZM180.472 78.8362C175.616 78.8362 171.714 77.2923 168.778 74.192C165.892 71.0416 164.436 66.6234 164.436 60.9375C164.436 56.5946 165.415 52.804 167.385 49.5531C169.405 46.3022 172.216 43.7919 175.83 42.0346C179.494 40.2272 183.71 39.3235 188.453 39.3235C192.381 39.3235 195.844 39.7628 198.83 40.6414C201.88 41.4698 204.665 42.6873 207.2 44.2814V75.2715C207.2 76.2505 207.024 76.9032 206.66 77.2045C206.297 77.5183 205.581 77.6689 204.49 77.6689H196.584C196.02 77.6689 195.58 77.5936 195.267 77.4304C194.953 77.2296 194.702 76.9158 194.489 76.5016L193.485 74.1795C191.992 75.7861 190.185 76.9409 188.064 77.6689C185.994 78.4471 183.459 78.8362 180.472 78.8362ZM186.282 68.3053C188.29 68.3053 189.871 67.8158 191.013 66.8368C192.155 65.8577 192.719 64.4645 192.719 62.657V50.5698C191.741 50.1054 190.498 49.8669 189.005 49.8669C186.27 49.8669 184.074 50.8208 182.417 52.7287C180.811 54.6365 180.021 57.3226 180.021 60.7868C180.008 65.795 182.091 68.3053 186.282 68.3053ZM217.966 77.6814C216.473 77.6814 215.407 77.3676 214.792 76.7526C214.177 76.1376 213.863 75.146 213.863 73.803V42.8881C213.863 41.9593 214.014 41.3443 214.327 41.0305C214.691 40.6665 215.407 40.4908 216.498 40.4908H224.479C225.094 40.4908 225.558 40.5912 225.872 40.8046C226.236 40.9552 226.436 41.269 226.487 41.7334L226.876 44.0554C228.319 42.612 230.201 41.4698 232.535 40.6414C234.906 39.7628 237.541 39.3235 240.44 39.3235C244.619 39.3235 248.007 40.5159 250.592 42.8881C253.176 45.2102 254.469 48.6745 254.469 53.2684V73.803C254.469 75.146 254.155 76.125 253.54 76.7526C252.976 77.3676 251.934 77.6814 250.441 77.6814H242.925C241.431 77.6814 240.34 77.3676 239.675 76.7526C239.06 76.1376 238.746 75.146 238.746 73.803V54.2725C238.746 52.7287 238.407 51.6116 237.742 50.9463C237.065 50.2811 236.011 49.9422 234.568 49.9422C233.024 49.9422 231.782 50.3564 230.853 51.1848C229.975 52.0132 229.536 53.1429 229.536 54.5989V73.8155C229.536 75.1585 229.222 76.1376 228.607 76.7652C228.042 77.3802 227.001 77.694 225.508 77.694C225.483 77.6814 217.966 77.6814 217.966 77.6814ZM281.836 78.8362C274.609 78.8362 269.025 77.1543 265.11 73.803C261.182 70.4516 259.225 65.5691 259.225 59.1551C259.225 55.2265 260.128 51.7622 261.935 48.7749C263.742 45.775 266.352 43.453 269.765 41.7961C273.228 40.1393 277.307 39.3109 282 39.3109C285.563 39.3109 288.562 39.6498 290.984 40.315C293.469 40.9928 295.652 42.0221 297.572 43.4153C298.136 43.7793 298.425 44.2437 298.425 44.8085C298.425 45.2228 298.224 45.7625 297.81 46.4403L294.635 51.9379C294.272 52.6659 293.832 53.0173 293.318 53.0173C293.004 53.0173 292.515 52.8165 291.85 52.4023C290.457 51.5237 289.139 50.8836 287.897 50.4694C286.705 50.0552 285.212 49.8543 283.405 49.8543C280.82 49.8543 278.737 50.6827 277.131 52.3395C275.587 53.9964 274.809 56.2683 274.809 59.1551C274.809 62.1048 275.613 64.3766 277.206 65.9707C278.812 67.5146 281.008 68.2928 283.794 68.2928C285.45 68.2928 286.943 68.0543 288.286 67.5899C289.629 67.1255 290.997 66.4853 292.389 65.6569C293.117 65.2427 293.632 65.0419 293.933 65.0419C294.397 65.0419 294.811 65.4059 295.175 66.1213L298.663 72.0834C298.927 72.598 299.052 73.0122 299.052 73.326C299.052 73.7904 298.739 74.2297 298.124 74.6439C295.953 76.0372 293.581 77.0664 290.997 77.7442C288.449 78.4722 285.4 78.8362 281.836 78.8362ZM318.678 78.8362C313.822 78.8362 309.919 77.2923 306.983 74.192C304.097 71.0416 302.641 66.6234 302.641 60.9375C302.641 56.5946 303.62 52.804 305.59 49.5531C307.598 46.3022 310.421 43.7919 314.035 42.0346C317.699 40.2272 321.915 39.3235 326.658 39.3235C330.586 39.3235 334.049 39.7628 337.036 40.6414C340.085 41.4698 342.871 42.6873 345.405 44.2814V75.2715C345.405 76.2505 345.23 76.9032 344.866 77.2045C344.502 77.5183 343.787 77.6689 342.695 77.6689H334.79C334.225 77.6689 333.786 77.5936 333.472 77.4304C333.158 77.2296 332.907 76.9158 332.694 76.5016L331.69 74.1795C330.197 75.7861 328.39 76.9409 326.269 77.6689C324.199 78.4471 321.677 78.8362 318.678 78.8362ZM324.488 68.3053C326.508 68.3053 328.076 67.8158 329.218 66.8368C330.36 65.8577 330.925 64.4645 330.925 62.657V50.5698C329.946 50.1054 328.704 49.8669 327.21 49.8669C324.475 49.8669 322.279 50.8208 320.623 52.7287C319.017 54.6365 318.226 57.3226 318.226 60.7868C318.213 65.795 320.296 68.3053 324.488 68.3053ZM394.054 74.7318C394.418 75.146 394.594 75.6104 394.594 76.125C394.594 76.5894 394.443 76.9785 394.13 77.2923C393.816 77.5559 393.402 77.6814 392.887 77.6814H380.879C380.151 77.6814 379.612 77.6312 379.248 77.5308C378.934 77.3802 378.608 77.0915 378.244 76.6773L367.703 62.3432V73.8155C367.703 75.1585 367.39 76.1376 366.775 76.7652C366.16 77.3802 365.093 77.694 363.6 77.694H356.084C354.59 77.694 353.524 77.3802 352.909 76.7652C352.344 76.1501 352.056 75.1585 352.056 73.8155V28.9558C352.056 27.6127 352.369 26.6337 352.984 26.0061C353.599 25.3283 354.641 25.002 356.084 25.002H363.6C365.093 25.002 366.16 25.3409 366.775 26.0061C367.39 26.6211 367.703 27.6127 367.703 28.9558V54.9127L377.93 41.5828C378.244 41.1685 378.57 40.8799 378.934 40.7292C379.298 40.5786 379.837 40.4908 380.565 40.4908H392.574C393.088 40.4908 393.477 40.6414 393.741 40.9552C394.054 41.2188 394.205 41.5702 394.205 42.0346C394.205 42.5492 394.029 43.0136 393.665 43.4279L380.415 58.6154C380.427 58.6154 394.054 74.7318 394.054 74.7318ZM419.213 78.8362C414.872 78.8362 411.007 78.1082 407.594 76.6647C404.244 75.2213 401.583 73.0498 399.613 70.1504C397.656 67.2635 396.664 63.7239 396.664 59.5317C396.664 52.9671 398.522 47.959 402.236 44.4948C405.95 41.0305 411.296 39.2984 418.272 39.2984C425.086 39.2984 430.256 41.0054 433.769 44.4069C437.333 47.7707 439.115 52.44 439.115 58.4271C439.115 61.0128 437.973 62.3056 435.702 62.3056H411.383C411.383 64.5272 412.212 66.2343 413.868 67.4141C415.574 68.6066 418.134 69.1965 421.535 69.1965C423.655 69.1965 425.412 69.0207 426.805 68.6567C428.248 68.2425 429.691 67.6526 431.147 66.8744C431.762 66.6108 432.176 66.4853 432.389 66.4853C432.853 66.4853 433.242 66.7991 433.556 67.4141L436.191 72.3721C436.455 72.8867 436.58 73.2758 436.58 73.5394C436.58 74.0038 436.266 74.4431 435.651 74.8573C433.531 76.2505 431.134 77.2547 428.449 77.8823C425.764 78.5098 422.677 78.8362 419.213 78.8362ZM425.174 54.6616C425.174 52.7036 424.609 51.1723 423.467 50.0928C422.325 49.0134 420.631 48.4611 418.36 48.4611C416.089 48.4611 414.357 49.0259 413.165 50.1681C411.973 51.2476 411.383 52.7538 411.383 54.6616H425.174ZM465.667 78.8362C461.325 78.8362 457.222 78.3969 453.344 77.5183C449.467 76.5895 446.343 75.2966 443.971 73.6398C443.093 73.0749 442.653 72.4725 442.653 71.8575C442.653 71.4432 442.804 71.0039 443.118 70.5395L446.92 64.4896C447.334 63.8746 447.748 63.5608 448.162 63.5608C448.425 63.5608 448.865 63.7365 449.48 64.1005C451.387 65.18 453.558 66.0585 455.992 66.7363C458.414 67.4141 460.823 67.7405 463.195 67.7405C465.616 67.7405 467.398 67.3765 468.54 66.661C469.732 65.933 470.322 64.7783 470.322 63.1717C470.322 61.6278 469.682 60.4103 468.39 59.5317C467.147 58.6531 464.801 57.5485 461.338 56.2055C456.117 54.2474 452.039 52.0509 449.103 49.6158C446.217 47.1306 444.761 43.7793 444.761 39.5368C444.761 34.4283 446.593 30.5247 450.258 27.8387C453.922 25.1526 458.803 23.8096 464.901 23.8096C469.13 23.8096 472.756 24.1987 475.743 24.9769C478.792 25.7049 481.377 26.8345 483.485 28.3909C484.363 29.0687 484.803 29.6838 484.803 30.2486C484.803 30.6126 484.652 31.0268 484.338 31.4912L480.549 37.5411C480.084 38.1562 479.67 38.4699 479.306 38.4699C479.043 38.4699 478.604 38.2942 477.989 37.9302C474.99 35.9722 471.426 34.9806 467.298 34.9806C465.077 34.9806 463.37 35.3446 462.191 36.06C460.999 36.788 460.409 37.9679 460.409 39.6247C460.409 40.7669 460.723 41.6957 461.338 42.4112C461.952 43.1392 462.781 43.7793 463.822 44.3441C464.901 44.8588 466.558 45.5366 468.779 46.365L470.247 46.9047C474.074 48.3983 477.06 49.8543 479.231 51.2476C481.452 52.5906 483.134 54.2725 484.263 56.2808C485.405 58.2389 485.97 60.7241 485.97 63.7239C485.97 68.3179 484.238 71.983 480.775 74.7318C477.374 77.4681 472.33 78.8362 465.667 78.8362ZM502.42 77.6814C501.642 77.6814 501.052 77.5559 500.638 77.2923C500.224 77.0287 499.911 76.5141 499.71 75.7485L489.721 42.2731C489.621 41.9593 489.571 41.7334 489.571 41.5702C489.571 40.8422 490.085 40.4908 491.114 40.4908H501.341C502.019 40.4908 502.508 40.6163 502.809 40.8799C503.123 41.0932 503.324 41.4447 503.424 41.9593L507.615 59.5442L512.885 45.3608C513.149 44.7458 513.4 44.3316 513.663 44.1182C513.977 43.8546 514.491 43.7291 515.219 43.7291H520.1C520.828 43.7291 521.318 43.8546 521.569 44.1182C521.882 44.319 522.158 44.7332 522.422 45.3608L527.604 59.5442L531.871 41.9593C532.021 41.4447 532.222 41.0807 532.485 40.8799C532.736 40.6163 533.213 40.4908 533.878 40.4908H544.18C545.209 40.4908 545.724 40.8548 545.724 41.5702C545.724 41.7208 545.674 41.9593 545.573 42.2731L535.497 75.7359C535.296 76.5141 534.983 77.0288 534.569 77.2798C534.205 77.5434 533.64 77.6689 532.862 77.6689H525.27C524.543 77.6689 524.003 77.5434 523.639 77.2798C523.275 76.966 522.974 76.4514 522.711 75.7359L517.603 61.7157L512.496 75.7359C512.296 76.4639 511.982 76.9786 511.568 77.2798C511.204 77.5434 510.664 77.6689 509.949 77.6689C509.936 77.6814 502.42 77.6814 502.42 77.6814ZM565.362 78.8362C560.505 78.8362 556.616 77.2923 553.667 74.192C550.781 71.0416 549.325 66.6234 549.325 60.9375C549.325 56.5946 550.304 52.804 552.274 49.5531C554.282 46.3022 557.105 43.7919 560.719 42.0346C564.383 40.2272 568.599 39.3235 573.342 39.3235C577.27 39.3235 580.733 39.7628 583.72 40.6414C586.769 41.4698 589.554 42.6873 592.089 44.2814V75.2715C592.089 76.2505 591.913 76.9032 591.55 77.2045C591.186 77.5183 590.47 77.6689 589.379 77.6689H581.473C580.909 77.6689 580.47 77.5936 580.156 77.4304C579.842 77.2296 579.591 76.9158 579.378 76.5016L578.374 74.1795C576.881 75.7861 575.061 76.9409 572.953 77.6689C570.883 78.4471 568.361 78.8362 565.362 78.8362ZM571.171 68.3053C573.179 68.3053 574.76 67.8158 575.902 66.8368C577.044 65.8577 577.609 64.4645 577.609 62.657V50.5698C576.617 50.1054 575.388 49.8669 573.894 49.8669C571.159 49.8669 568.963 50.8208 567.307 52.7287C565.713 54.6365 564.91 57.3226 564.91 60.7868C564.897 65.795 566.993 68.3053 571.171 68.3053ZM602.793 93.3334C601.3 93.3334 600.233 93.0196 599.618 92.4046C599.053 91.7895 598.765 90.7979 598.765 89.4549V45.0596C601.086 43.4028 604.01 42.0346 607.511 40.9552C611.024 39.8757 614.688 39.3235 618.516 39.3235C634.113 39.3235 641.905 45.9382 641.905 59.1551C641.905 65.1423 640.249 69.9245 636.949 73.4892C633.636 77.0538 628.968 78.8362 622.932 78.8362C621.226 78.8362 619.57 78.6354 617.976 78.2212C616.433 77.807 615.14 77.2421 614.111 76.5141V89.4549C614.111 90.7979 613.797 91.777 613.183 92.4046C612.568 93.0196 611.501 93.3334 610.008 93.3334C609.995 93.3334 602.793 93.3334 602.793 93.3334ZM619.595 68.3806C621.816 68.3806 623.472 67.5522 624.551 65.8954C625.693 64.1884 626.258 61.9165 626.258 59.0798C626.258 55.7285 625.593 53.3688 624.25 52.0258C622.958 50.6325 620.937 49.9296 618.202 49.9296C616.445 49.9296 615.052 50.1681 614.023 50.6325V62.9583C614.023 64.7155 614.513 66.0586 615.491 66.9874C616.483 67.9162 617.85 68.3806 619.595 68.3806Z" fill="white"/>
<path fill-rule="evenodd" clip-rule="evenodd" d="M47.5939 100C32.91 99.9874 21.0649 96.456 12.7997 90.1219C4.43406 83.7125 0 74.6136 0 64.3207C0 54.4049 4.43406 47.254 9.44593 42.4155C13.3775 38.6327 17.7111 36.1945 20.7258 34.7995C20.0475 32.7008 19.1933 29.961 18.4271 27.1333C17.4097 23.3379 16.4048 18.889 16.4048 15.634C16.4048 11.7758 17.2464 7.90499 19.5074 4.88878C21.9065 1.70919 25.5116 0 29.8451 0C33.2366 0 36.1131 1.25675 38.3615 3.43094C40.5095 5.50458 41.954 8.25688 42.9338 11.1349C44.6672 16.187 45.3455 22.521 45.5339 28.8551H49.6916C49.88 22.521 50.5583 16.187 52.3043 11.1349C53.2967 8.25688 54.7286 5.50458 56.8766 3.43094C59.125 1.25675 62.014 0 65.393 0C69.7266 0 73.3316 1.70919 75.7307 4.88878C77.9917 7.90499 78.8333 11.7758 78.8333 15.634C78.8333 18.889 77.8284 23.3379 76.811 27.1333C76.0448 29.961 75.2032 32.7133 74.5123 34.7995C77.527 36.1945 81.8606 38.6201 85.7922 42.4155C90.804 47.254 95.2381 54.4049 95.2381 64.3207C95.2381 74.6136 90.804 83.7125 82.4384 90.1219C74.1732 96.456 62.3406 99.9874 47.6442 100H47.5939Z" fill="#633001"/>
<path d="M29.4129 3.80957C23.0776 3.80957 20.1603 8.59122 20.1603 15.2052C20.1603 20.4638 23.5534 30.9934 24.9431 35.0973C25.2562 36.0261 24.7679 37.0301 23.8664 37.3815C18.7956 39.4021 3.80859 46.8318 3.80859 63.8249C3.80859 81.7215 19.0335 95.2256 47.1044 95.2381H47.1419H47.1795C75.2504 95.213 90.4753 81.7215 90.4753 63.8249C90.4753 46.8318 75.5008 39.4146 70.4175 37.3815C69.516 37.0301 69.0277 36.0135 69.3407 35.0973C70.7305 30.9934 74.1235 20.4638 74.1235 15.2052C74.1235 8.59122 71.2063 3.80957 64.8709 3.80957C55.756 3.80957 53.4773 16.8869 53.3145 30.9181C53.302 31.8594 52.5508 32.6124 51.6368 32.6124H42.6596C41.7331 32.6124 40.9819 31.8468 40.9693 30.9181C40.7941 16.8869 38.5279 3.80957 29.4129 3.80957Z" fill="#D1884F"/>
<path d="M47.6181 89.4236C26.7823 89.4236 3.84655 78.2582 3.80859 63.8096V63.8722C3.80859 81.7544 19.2172 95.2381 47.6181 95.2381C76.019 95.2381 91.4276 81.7544 91.4276 63.8722V63.8096C91.3897 78.2582 68.4539 89.4236 47.6181 89.4236Z" fill="#FEDC90"/>
<path d="M36.0274 59.5237C36.0274 64.2173 33.7217 66.6666 30.8711 66.6666C28.0206 66.6666 25.7148 64.2173 25.7148 59.5237C25.7148 54.8302 28.0206 52.3809 30.8711 52.3809C33.7217 52.3809 36.0274 54.8181 36.0274 59.5237ZM69.5244 59.5237C69.5244 64.2173 67.2186 66.6666 64.3681 66.6666C61.5175 66.6666 59.2118 64.2173 59.2118 59.5237C59.2118 54.8302 61.5175 52.3809 64.3681 52.3809C67.2186 52.3809 69.5244 54.8181 69.5244 59.5237Z" fill="#633001"/>
</svg>
