<svg width="136" height="176" viewBox="0 0 136 176" fill="none" xmlns="http://www.w3.org/2000/svg">
<g filter="url(#filter0_d_2352_28)">
<path d="M9.06697 113.204C5.04917 110.898 5.04918 105.102 9.06697 102.796L60.5335 73.258C65.1575 70.6041 70.8427 70.6041 75.4667 73.258L126.933 102.796C130.951 105.102 130.951 110.898 126.933 113.204L75.4667 142.742C70.8427 145.396 65.1575 145.396 60.5335 142.742L9.06697 113.204Z" fill="url(#paint0_linear_2352_28)"/>
</g>
<g filter="url(#filter1_d_2352_28)">
<path d="M9.06697 93.204C5.04917 90.898 5.04918 85.1022 9.06697 82.7963L60.5335 53.258C65.1575 50.6041 70.8427 50.6041 75.4667 53.258L126.933 82.7963C130.951 85.1022 130.951 90.898 126.933 93.204L75.4667 122.742C70.8427 125.396 65.1575 125.396 60.5335 122.742L9.06697 93.204Z" fill="url(#paint1_linear_2352_28)"/>
</g>
<g filter="url(#filter2_d_2352_28)">
<path d="M9.06697 73.204C5.04917 70.898 5.04918 65.1022 9.06697 62.7963L60.5335 33.258C65.1575 30.6041 70.8427 30.6041 75.4667 33.258L126.933 62.7963C130.951 65.1022 130.951 70.898 126.933 73.204L75.4667 102.742C70.8427 105.396 65.1575 105.396 60.5335 102.742L9.06697 73.204Z" fill="url(#paint2_linear_2352_28)"/>
</g>
<defs>
<filter id="filter0_d_2352_28" x="2.05371" y="71.2676" width="131.893" height="81.4651" filterUnits="userSpaceOnUse" color-interpolation-filters="sRGB">
<feFlood flood-opacity="0" result="BackgroundImageFix"/>
<feColorMatrix in="SourceAlpha" type="matrix" values="0 0 0 0 0 0 0 0 0 0 0 0 0 0 0 0 0 0 127 0" result="hardAlpha"/>
<feOffset dy="4"/>
<feGaussianBlur stdDeviation="2"/>
<feComposite in2="hardAlpha" operator="out"/>
<feColorMatrix type="matrix" values="0 0 0 0 0 0 0 0 0 0 0 0 0 0 0 0 0 0 0.25 0"/>
<feBlend mode="normal" in2="BackgroundImageFix" result="effect1_dropShadow_2352_28"/>
<feBlend mode="normal" in="SourceGraphic" in2="effect1_dropShadow_2352_28" result="shape"/>
</filter>
<filter id="filter1_d_2352_28" x="2.05371" y="51.2676" width="131.893" height="81.4651" filterUnits="userSpaceOnUse" color-interpolation-filters="sRGB">
<feFlood flood-opacity="0" result="BackgroundImageFix"/>
<feColorMatrix in="SourceAlpha" type="matrix" values="0 0 0 0 0 0 0 0 0 0 0 0 0 0 0 0 0 0 127 0" result="hardAlpha"/>
<feOffset dy="4"/>
<feGaussianBlur stdDeviation="2"/>
<feComposite in2="hardAlpha" operator="out"/>
<feColorMatrix type="matrix" values="0 0 0 0 0 0 0 0 0 0 0 0 0 0 0 0 0 0 0.25 0"/>
<feBlend mode="normal" in2="BackgroundImageFix" result="effect1_dropShadow_2352_28"/>
<feBlend mode="normal" in="SourceGraphic" in2="effect1_dropShadow_2352_28" result="shape"/>
</filter>
<filter id="filter2_d_2352_28" x="2.05371" y="31.2676" width="131.893" height="81.4651" filterUnits="userSpaceOnUse" color-interpolation-filters="sRGB">
<feFlood flood-opacity="0" result="BackgroundImageFix"/>
<feColorMatrix in="SourceAlpha" type="matrix" values="0 0 0 0 0 0 0 0 0 0 0 0 0 0 0 0 0 0 127 0" result="hardAlpha"/>
<feOffset dy="4"/>
<feGaussianBlur stdDeviation="2"/>
<feComposite in2="hardAlpha" operator="out"/>
<feColorMatrix type="matrix" values="0 0 0 0 0 0 0 0 0 0 0 0 0 0 0 0 0 0 0.25 0"/>
<feBlend mode="normal" in2="BackgroundImageFix" result="effect1_dropShadow_2352_28"/>
<feBlend mode="normal" in="SourceGraphic" in2="effect1_dropShadow_2352_28" result="shape"/>
</filter>
<linearGradient id="paint0_linear_2352_28" x1="34" y1="74.0001" x2="102" y2="142" gradientUnits="userSpaceOnUse">
<stop stop-color="#F2F7F7"/>
</linearGradient>
<linearGradient id="paint1_linear_2352_28" x1="34" y1="54.0001" x2="102" y2="122" gradientUnits="userSpaceOnUse">
<stop stop-color="#F2F7F7"/>
</linearGradient>
<linearGradient id="paint2_linear_2352_28" x1="34" y1="34.0001" x2="102" y2="102" gradientUnits="userSpaceOnUse">
<stop stop-color="#F2F7F7"/>
</linearGradient>
</defs>
</svg>
