<svg width="684" height="100" viewBox="0 0 684 100" fill="none" xmlns="http://www.w3.org/2000/svg">
<path fill-rule="evenodd" clip-rule="evenodd" d="M318.965 3.5498C313.184 3.5498 308.418 8.21512 308.418 14.1989C308.418 20.0812 313.184 24.7466 318.965 24.7466C324.746 24.7466 329.513 20.0812 329.513 14.1989C329.513 8.21512 324.746 3.5498 318.965 3.5498ZM328.194 30.1218H309.837V93.205H328.194V30.1218ZM202.535 5.88246H220.487V30.1218H234.28V46.9575H220.487V69.1685C220.487 72.4139 223.022 75.0508 226.166 75.0508H234.178V93.0021H226.166C213.184 93.0021 202.535 82.353 202.535 69.067V46.8561H194.219V29.919H202.535V5.88246ZM277.992 28.7019C269.675 28.7019 263.083 32.2516 260.547 37.7283V5.88246H242.19V93.1035H260.547V57.708C260.547 50.3044 265.314 45.1319 272.008 45.1319C278.803 45.1319 282.657 49.5944 282.657 57.0995V93.205H301.014V54.7668C301.014 38.4382 292.697 28.7019 277.992 28.7019ZM354.462 29.919V38.5397C357.2 32.2516 363.996 28.6005 372.413 28.4991C373.732 28.4991 375.355 28.6005 377.282 28.8033V46.349C375.456 46.0447 373.326 45.7405 371.196 45.7405C360.649 45.7405 354.564 51.7242 354.564 62.1705V93.0021H336.207V29.919H354.462ZM429.006 38.2354C427.18 32.7587 419.878 28.9048 410.547 28.9048C401.724 28.9048 394.32 32.0488 388.438 38.4382C382.657 44.6248 379.614 52.5356 379.614 61.6634C379.614 70.7912 382.657 78.4991 388.438 84.9899C394.32 91.1766 401.724 94.3206 410.547 94.3206C419.878 94.3206 427.18 90.4666 429.006 84.9899V93.3064H447.363V5.98388H429.006V38.2354ZM425.253 72.8196C422.109 75.8622 418.357 77.2821 413.793 77.2821C409.432 77.2821 405.578 75.7607 402.535 72.8196C399.391 69.6755 397.87 65.923 397.87 61.562C397.87 57.2009 399.391 53.4484 402.535 50.4058C405.679 47.2618 409.33 45.7405 413.793 45.7405C418.458 45.7405 422.211 47.2618 425.253 50.4058C428.499 53.4484 430.121 57.2009 430.121 61.562C430.121 65.923 428.499 69.6755 425.253 72.8196ZM500.507 30.3246L517.14 60.3449L528.397 30.1218H546.45L520.689 96.8561L500.405 60.5478L480.121 96.8561L454.564 30.1218H472.616L483.773 60.3449L500.507 30.3246ZM576.673 28.6005C567.14 28.6005 559.229 31.6431 552.941 37.7283C546.856 43.7121 543.712 51.6228 543.712 61.4606V62.0691C543.712 71.9068 546.856 79.919 552.941 85.8013C559.33 91.6837 567.444 94.7263 577.586 94.7263C587.119 94.7263 594.827 92.9007 600.71 88.9453V72.6167C594.929 76.6735 587.525 78.7019 578.6 78.7019C568.864 78.7019 562.474 73.9352 562.17 66.4301H607.91C608.113 64.6046 608.215 62.4747 608.215 60.3449C608.215 51.3186 605.172 43.8135 599.391 37.7283C593.712 31.6431 586.004 28.6005 576.673 28.6005ZM562.272 54.4626C562.373 51.5214 563.894 49.0873 566.633 47.0589C569.574 45.0305 572.718 44.0163 576.673 44.0163C583.975 44.0163 589.655 48.7831 589.655 54.4626H562.272ZM652.129 28.9048C660.953 28.9048 668.357 32.0488 674.138 38.4382C680.02 44.7263 683.063 52.3328 683.063 61.4606C683.063 70.5883 680.02 78.2963 674.138 84.7871C668.357 90.9737 660.953 94.1177 652.129 94.1177C642.799 94.1177 635.497 90.2638 633.671 84.7871V93.1035H615.314V5.88246H633.671V38.3368C635.497 32.7587 642.799 28.9048 652.129 28.9048ZM648.783 77.2821C653.144 77.2821 656.896 75.8622 660.04 72.8196C663.184 69.6755 664.706 65.923 664.706 61.562C664.706 57.2009 663.184 53.4484 660.04 50.4058C656.998 47.2618 653.245 45.7405 648.783 45.7405C644.32 45.7405 640.466 47.2618 637.221 50.4058C634.077 53.4484 632.454 57.2009 632.454 61.562C632.454 65.923 634.077 69.6755 637.221 72.8196C640.365 75.7607 644.117 77.2821 648.783 77.2821Z" fill="white"/>
<mask id="mask0_2363_71" style="mask-type:luminance" maskUnits="userSpaceOnUse" x="0" y="0" width="161" height="100">
<path d="M160.852 0H0V100H160.852V0Z" fill="white"/>
</mask>
<g mask="url(#mask0_2363_71)">
<path fill-rule="evenodd" clip-rule="evenodd" d="M0.403748 8.41784C-1.21897 4.36104 1.82363 0 6.18469 0H33.3652C35.9007 0 38.1319 1.5213 39.1461 3.85396L60.7486 57.7079C61.3571 59.1278 61.3571 60.7505 60.7486 62.2718L47.1583 96.146C45.1299 101.318 37.7263 101.318 35.5965 96.146L0.403748 8.41784ZM52.8378 8.21502C51.418 4.15822 54.3591 0 58.6188 0H82.351C84.9879 0 87.3206 1.62272 88.1319 4.05679L107.807 57.9107C108.315 59.2292 108.315 60.7505 107.807 62.069L96.0427 94.4219C94.1157 99.7972 86.3064 99.7972 84.3794 94.4219L52.8378 8.21502ZM105.982 0C101.621 0 98.5782 4.36104 100.201 8.41784L135.394 96.146C137.422 101.318 144.826 101.318 146.955 96.146L160.546 62.2718C161.154 60.7505 161.154 59.1278 160.546 57.7079L138.943 3.85396C138.031 1.5213 135.698 0 133.162 0H105.982Z" fill="url(#paint0_linear_2363_71)"/>
</g>
<defs>
<linearGradient id="paint0_linear_2363_71" x1="49.5979" y1="-0.611866" x2="160.723" y2="148.977" gradientUnits="userSpaceOnUse">
<stop stop-color="#F213A4"/>
<stop offset="1" stop-color="#5204BF"/>
</linearGradient>
</defs>
</svg>
