<svg width="646" height="100" viewBox="0 0 646 100" fill="none" xmlns="http://www.w3.org/2000/svg">
<mask id="mask0_2363_72" style="mask-type:luminance" maskUnits="userSpaceOnUse" x="0" y="0" width="372" height="100">
<path d="M371.429 0H0V100H371.429V0Z" fill="white"/>
</mask>
<g mask="url(#mask0_2363_72)">
<path d="M0 14.4452L44.6389 0V100C12.7536 86.6655 0 61.1101 0 46.6679V14.4452Z" fill="#0500FF"/>
<path d="M89.2835 14.4452L44.6445 0V100C76.5299 86.6655 89.2835 61.1101 89.2835 46.6679V14.4452Z" fill="url(#paint0_linear_2363_72)"/>
<path d="M167.67 23.5894H185.375V33.4627C191.175 24.5894 197.85 23.5894 207.621 23.5894V41.0376H203.171C191.463 41.0376 185.857 46.5234 185.857 57.3904V75.937H167.67V23.5894Z" fill="white"/>
<path d="M266.693 75.9337H248.51V70.9433C244.54 75.5307 239.128 77.5244 232.456 77.5244C219.786 77.5244 212.623 70.0449 212.623 56.2888V23.5862H230.806V52.2059C230.806 58.6825 233.998 62.47 239.412 62.47C244.827 62.47 248.508 58.7778 248.508 52.5013V23.5862H266.691V75.9337H266.693Z" fill="white"/>
<path d="M271.139 59.775H288.168C288.945 63.5624 291.555 65.1562 297.839 65.1562C302.968 65.1562 305.966 63.9624 305.966 61.7687C305.966 60.0703 304.514 58.9719 300.36 58.0765L286.624 54.9845C277.434 52.8953 272.789 47.6095 272.789 39.1301C272.789 27.9584 281.009 22.1772 296.97 22.1772C312.932 22.1772 320.765 27.8107 322.124 39.8808H305.199C304.912 36.6933 301.617 34.7426 296.204 34.7426C291.853 34.7426 289.053 36.1364 289.053 38.2347C289.053 40.0284 290.885 41.4222 294.568 42.3268L308.979 45.8189C318.457 48.108 323.009 52.8984 323.009 60.6733C323.009 71.445 313.623 77.8262 297.672 77.8262C281.72 77.8262 271.166 70.9465 271.166 59.775H271.148H271.139Z" fill="white"/>
<path d="M371.43 39.8682V23.5862H326.547V39.8775H339.941V75.9337H358.031V39.8682H371.43Z" fill="white"/>
<path d="M162.608 39.8682V23.5862H117.729V39.8775H131.121V75.9337H149.215V39.8682H162.608Z" fill="white"/>
</g>
<path d="M399.049 74.72L385.096 23.9487H391.375L402.039 65.2996H402.538L413.402 23.9487H420.379L431.243 65.2996H431.741L442.405 23.9487H448.685L434.731 74.72H428.352L417.089 34.2616H416.691L405.429 74.72H399.049ZM452.398 74.72H445.92L464.657 23.9487H471.036L489.774 74.72H483.295L478.162 60.3414H457.531L452.398 74.72ZM459.474 54.8874H476.219L468.046 31.981H467.648L459.474 54.8874ZM495.617 74.72V23.9487H501.796V69.266H525.518V74.72H495.617ZM532.981 74.72V23.9487H539.161V69.266H562.882V74.72H532.981ZM570.345 74.72V23.9487H601.143V29.4027H576.524V46.5578H599.548V52.0117H576.524V69.266H601.542V74.72H570.345ZM607.384 29.4027V23.9487H645.658V29.4027H629.611V74.72H623.431V29.4027H607.384Z" fill="white"/>
<defs>
<linearGradient id="paint0_linear_2363_72" x1="77.4261" y1="-7.00264" x2="43.9761" y2="98.7187" gradientUnits="userSpaceOnUse">
<stop offset="0.02" stop-color="#0000FF"/>
<stop offset="0.08" stop-color="#0094FF"/>
<stop offset="0.16" stop-color="#48FF91"/>
<stop offset="0.42" stop-color="#0094FF"/>
<stop offset="0.68" stop-color="#0038FF"/>
<stop offset="0.9" stop-color="#0500FF"/>
</linearGradient>
</defs>
</svg>
